<svg width="891" height="421" xmlns="http://www.w3.org/2000/svg" xmlns:xlink="http://www.w3.org/1999/xlink"
	overflow="hidden">
	<defs>
		<clipPath id="clip0">
			<rect x="68" y="72" width="891" height="421" />
		</clipPath>
	</defs>
	<g clip-path="url(#clip0)" transform="translate(-68 -72)">
		<rect x="649.5" y="165.5" width="103" height="232" stroke="#007A9E" stroke-width="3" stroke-miterlimit="8"
			stroke-dasharray="12 9" fill="#BDD7EE" />
		<rect x="457.5" y="164.5" width="102" height="233" stroke="#007A9E" stroke-width="3" stroke-miterlimit="8"
			stroke-dasharray="12 9" fill="#BDD7EE" />
		<rect x="81.5001" y="172.5" width="87" height="55" stroke="#007A9E" stroke-width="2.66667"
			stroke-linejoin="round" stroke-miterlimit="10" fill="#FFFFFF" /><text fill="#323232"
			font-family="Verdana,Verdana_MSFontService,sans-serif" font-weight="700" font-size="11"
			transform="translate(99.3244 204)">Supplier</text>
		<rect x="272.5" y="172.5" width="88" height="55" stroke="#007A9E" stroke-width="2.66667" stroke-linejoin="round"
			stroke-miterlimit="10" fill="#FFFFFF" /><text fill="#323232"
			font-family="Verdana,Verdana_MSFontService,sans-serif" font-weight="700" font-size="11"
			transform="translate(296.526 195)">Firm A<tspan font-style="italic" font-size="8" x="-12.7467" y="18">
				Inventory</tspan>
			<tspan font-style="italic" font-size="8" x="31.7533" y="18">:</tspan>
		</text>
		<rect x="848.5" y="172.5" width="88" height="55" stroke="#007A9E" stroke-width="2.66667" stroke-linejoin="round"
			stroke-miterlimit="10" fill="#FFFFFF" /><text fill="#323232"
			font-family="Verdana,Verdana_MSFontService,sans-serif" font-weight="700" font-size="11"
			transform="translate(866.611 195)">Garbage<tspan font-style="italic" font-size="8" x="-7.16669" y="18">
				Amount</tspan>
			<tspan font-style="italic" font-size="8" x="28" y="18">:</tspan>
		</text>
		<rect x="656.5" y="172.5" width="88" height="55" stroke="#007A9E" stroke-width="2.66667" stroke-linejoin="round"
			stroke-miterlimit="10" fill="#FFFFFF" /><text fill="#323232"
			font-family="Verdana,Verdana_MSFontService,sans-serif" font-weight="700" font-size="11"
			transform="translate(672.136 188)">Resource<tspan font-size="11" x="9.75336" y="13">in </tspan>use<tspan
				font-style="italic" font-size="8" x="-4.58002" y="31">Amount</tspan>
			<tspan font-style="italic" font-size="8" x="30.5867" y="31">: </tspan>
		</text>
		<rect x="464.5" y="172.5" width="88" height="55" stroke="#007A9E" stroke-width="2.66667" stroke-linejoin="round"
			stroke-miterlimit="10" fill="#FFFFFF" /><text fill="#323232"
			font-family="Verdana,Verdana_MSFontService,sans-serif" font-weight="700" font-size="11"
			transform="translate(484.601 198)">Market<tspan font-size="11" x="41.8333" y="0">-</tspan>
			<tspan font-size="11" x="7.58667" y="12">place </tspan>
		</text>
		<path
			d="M0.00039021-0.666667 83.1627-0.61799 83.1619 0.715343-0.00039021 0.666667ZM75.5013-5.19833 84.4854 0.0494505 75.4952 5.28671C75.177 5.47204 74.7689 5.36438 74.5835 5.04624 74.3982 4.72809 74.5059 4.31994 74.824 4.13461L82.8267-0.527373 82.8261 0.624332 74.8288-4.04702C74.5109-4.23272 74.4037-4.641 74.5894-4.95892 74.7751-5.27685 75.1834-5.38403 75.5013-5.19833Z"
			fill="#313131" transform="matrix(1 0 0 -1 177.5 200.549)" /><text fill="#323232"
			font-family="Verdana,Verdana_MSFontService,sans-serif" font-style="italic" font-weight="700" font-size="8"
			transform="translate(180.11 179)">Resource<tspan font-size="8" x="44.1667" y="0">cost</tspan>:<tspan
				font-size="8" x="0" y="14">Purchases</tspan>
			<tspan font-size="8" x="45.8333" y="14">:</tspan>
		</text>
		<path
			d="M758.502 199.833 759.836 199.838 759.831 201.171 758.498 201.167ZM761.169 199.842 762.502 199.847 762.498 201.18 761.164 201.176ZM763.836 199.851 765.169 199.856 765.164 201.189 763.831 201.184ZM766.502 199.86 767.836 199.864 767.831 201.198 766.498 201.193ZM769.169 199.869 770.502 199.873 770.498 201.207 769.164 201.202ZM771.836 199.878 773.169 199.882 773.164 201.216 771.831 201.211ZM774.502 199.887 775.836 199.891 775.831 201.224 774.498 201.22ZM777.169 199.896 778.502 199.9 778.498 201.233 777.164 201.229ZM779.836 199.904 781.169 199.909 781.164 201.242 779.831 201.238ZM782.502 199.913 783.835 199.918 783.831 201.251 782.498 201.247ZM785.169 199.922 786.502 199.927 786.498 201.26 785.164 201.256ZM787.835 199.931 789.169 199.936 789.164 201.269 787.831 201.264ZM790.502 199.94 791.835 199.944 791.831 201.278 790.498 201.273ZM793.169 199.949 794.502 199.953 794.498 201.287 793.164 201.282ZM795.835 199.958 797.169 199.962 797.164 201.296 795.831 201.291ZM798.502 199.967 799.835 199.971 799.831 201.304 798.498 201.3ZM801.169 199.975 802.502 199.98 802.498 201.313 801.164 201.309ZM803.835 199.984 805.169 199.989 805.164 201.322 803.831 201.318ZM806.502 199.993 807.835 199.998 807.831 201.331 806.498 201.327ZM809.169 200.002 810.502 200.007 810.498 201.34 809.164 201.335ZM811.835 200.011 813.169 200.015 813.164 201.349 811.831 201.344ZM814.502 200.02 815.835 200.024 815.831 201.358 814.498 201.353ZM817.169 200.029 818.502 200.033 818.498 201.367 817.164 201.362ZM819.835 200.038 821.169 200.042 821.164 201.375 819.831 201.371ZM822.502 200.047 823.835 200.051 823.831 201.384 822.497 201.38ZM825.169 200.055 826.502 200.06 826.497 201.393 825.164 201.389ZM827.835 200.064 829.169 200.069 829.164 201.402 827.831 201.398ZM830.502 200.073 831.835 200.078 831.831 201.411 830.497 201.407ZM833.169 200.082 834.502 200.087 834.497 201.42 833.164 201.415ZM835.835 200.091 837.169 200.095 837.164 201.429 835.831 201.424ZM838.502 200.1 838.659 200.1 838.655 201.434 838.497 201.433ZM831.011 195.499 839.98 200.771 830.976 205.984C830.657 206.168 830.249 206.06 830.065 205.741 829.88 205.422 829.989 205.015 830.308 204.83L838.323 200.19 838.319 201.342 830.335 196.648C830.018 196.462 829.911 196.053 830.098 195.736 830.285 195.419 830.693 195.312 831.011 195.499Z"
			fill="#313131" />
		<path d="M695.411 275.258 319.5 274.5" stroke="#313131" stroke-width="1.33333" stroke-linejoin="round"
			stroke-miterlimit="10" fill="none" fill-rule="evenodd" />
		<path
			d="M0.666667-1.85162e-06 0.666768 36.4801-0.666565 36.4801-0.666667 1.85162e-06ZM5.2426 28.816 0.000105018 37.8032-5.24244 28.816C-5.42796 28.498-5.32054 28.0898-5.0025 27.9043-4.68447 27.7187-4.27626 27.8262-4.09074 28.1442L0.575953 36.1442-0.575752 36.1442 4.09089 28.1442C4.27641 27.8261 4.68462 27.7187 5.00266 27.9042 5.32069 28.0898 5.42812 28.498 5.2426 28.816Z"
			fill="#313131" transform="matrix(1 0 0 -1 319.5 274.3)" />
		<path
			d="M508.167 118.486 508.986 158.264 507.653 158.292 506.834 118.514ZM513.403 150.508 508.347 159.601 502.92 150.724C502.728 150.409 502.827 149.999 503.141 149.807 503.456 149.615 503.866 149.714 504.058 150.028L508.888 157.93 507.737 157.954 512.238 149.86C512.417 149.538 512.823 149.422 513.144 149.601 513.466 149.78 513.582 150.186 513.403 150.508Z"
			fill="#313131" />
		<rect x="464.5" y="83.5001" width="88" height="27" stroke="#007A9E" stroke-width="2.66667"
			stroke-linejoin="round" stroke-miterlimit="10" fill="#FFFFFF" /><text fill="#323232"
			font-family="Verdana,Verdana_MSFontService,sans-serif" font-weight="700" font-size="11"
			transform="translate(478.02 101)">Consumer</text>
		<path
			d="M0.00039021-0.666667 83.1627-0.61799 83.1619 0.715343-0.00039021 0.666667ZM75.5013-5.19833 84.4854 0.0494505 75.4952 5.28671C75.177 5.47204 74.7689 5.36438 74.5835 5.04624 74.3982 4.72809 74.5059 4.31994 74.824 4.13461L82.8267-0.527373 82.8261 0.624332 74.8288-4.04702C74.5109-4.23272 74.4037-4.641 74.5894-4.95892 74.7751-5.27685 75.1834-5.38403 75.5013-5.19833Z"
			fill="#313131" transform="matrix(1 0 0 -1 366.5 173.549)" />
		<path
			d="M0.00039021-0.666667 83.1627-0.61799 83.1619 0.715343-0.00039021 0.666667ZM75.5013-5.19833 84.4854 0.0494505 75.4952 5.28671C75.177 5.47204 74.7689 5.36438 74.5835 5.04624 74.3982 4.72809 74.5059 4.31994 74.824 4.13461L82.8267-0.527373 82.8261 0.624332 74.8288-4.04702C74.5109-4.23272 74.4037-4.641 74.5894-4.95892 74.7751-5.27685 75.1834-5.38403 75.5013-5.19833Z"
			fill="#313131" transform="matrix(1 0 0 -1 367.5 226.549)" />
		<path
			d="M0.000429243-0.666667 75.4802-0.618068 75.4793 0.715265-0.000429243 0.666667ZM67.8193-5.19885 76.8031 0.0494509 67.8125 5.28618C67.4944 5.4715 67.0862 5.36381 66.9009 5.04566 66.7156 4.7275 66.8233 4.31936 67.1414 4.13404L75.1445-0.52747 75.1437 0.624235 67.1467-4.04758C66.8288-4.23331 66.7216-4.64159 66.9074-4.9595 67.0931-5.27742 67.5014-5.38458 67.8193-5.19885Z"
			fill="#313131" transform="matrix(1 0 0 -1 566.5 200.549)" /><text fill="#323232"
			font-family="Verdana,Verdana_MSFontService,sans-serif" font-style="italic" font-weight="700" font-size="8"
			transform="translate(371.931 207)">Price <tspan font-size="8" x="25.1667" y="0">used</tspan>
			<tspan font-size="8" x="46.5" y="0">:</tspan>
			<tspan font-size="8" x="0" y="14">Sales </tspan>
			<tspan font-size="8" x="26.3333" y="14">used</tspan>
			<tspan font-size="8" x="47.6667" y="14">:</tspan>
			<tspan font-size="8" x="0" y="-53">Price </tspan>
			<tspan font-size="8" x="25.1667" y="-53">new</tspan>
			<tspan font-size="8" x="44" y="-53">:</tspan>
			<tspan font-size="8" x="0" y="-39">Sales </tspan>
			<tspan font-size="8" x="26.3333" y="-39">new</tspan>
			<tspan font-size="8" x="45.1667" y="-39">:</tspan>
			<tspan font-size="8" x="142.51" y="-82">Arrivals</tspan>
			<tspan font-size="8" x="177.177" y="-82">:</tspan>
			<tspan font-size="8" x="142.51" y="-68">Sales:</tspan>
			<tspan font-size="8" x="-36.4247" y="46">Rebuy</tspan>
			<tspan font-size="8" x="-5.59134" y="46">price</tspan>
			<tspan font-size="8" x="16.742" y="46">:</tspan>
			<tspan font-size="8" x="-36.4247" y="60">Repurchases</tspan>
			<tspan font-size="8" x="20.9087" y="60">:</tspan>
			<tspan fill="#000000" font-style="normal" font-size="19" x="-292.061" y="-110">Market </tspan>
			<tspan fill="#000000" font-style="normal" font-size="19" x="-212.894" y="-110">S</tspan>
			<tspan fill="#000000" font-style="normal" font-size="19" x="-199.561" y="-110">imulation</tspan>
			<tspan fill="#000000" font-size="9" x="-292.061" y="-89">Episode </tspan>
			<tspan fill="#000000" font-size="9" x="-248.394" y="-89">length</tspan>
			<tspan fill="#000000" font-size="9" x="-214.894" y="-89">:</tspan>
			<tspan fill="#000000" font-size="9" x="-292.061" y="-70">Episode:</tspan>
		</text>
		<rect x="81.5001" y="333.5" width="87" height="55" stroke="#007A9E" stroke-width="2.66667"
			stroke-linejoin="round" stroke-miterlimit="10" fill="#FFFFFF" /><text fill="#323232"
			font-family="Verdana,Verdana_MSFontService,sans-serif" font-weight="700" font-size="11"
			transform="translate(99.3243 365)">Supplier</text>
		<rect x="272.5" y="333.5" width="88" height="55" stroke="#007A9E" stroke-width="2.66667" stroke-linejoin="round"
			stroke-miterlimit="10" fill="#FFFFFF" /><text fill="#323232"
			font-family="Verdana,Verdana_MSFontService,sans-serif" font-weight="700" font-size="11"
			transform="translate(296.612 356)">Firm B<tspan font-style="italic" font-size="8" x="-12.8333" y="18">
				Inventory</tspan>
			<tspan font-style="italic" font-size="8" x="31.6667" y="18">:</tspan>
		</text>
		<rect x="848.5" y="333.5" width="88" height="55" stroke="#007A9E" stroke-width="2.66667" stroke-linejoin="round"
			stroke-miterlimit="10" fill="#FFFFFF" /><text fill="#323232"
			font-family="Verdana,Verdana_MSFontService,sans-serif" font-weight="700" font-size="11"
			transform="translate(866.611 356)">Garbage<tspan font-style="italic" font-size="8" x="-7.16663" y="18">
				Amount</tspan>
			<tspan font-style="italic" font-size="8" x="28" y="18">:</tspan>
		</text>
		<rect x="656.5" y="333.5" width="88" height="55" stroke="#007A9E" stroke-width="2.66667" stroke-linejoin="round"
			stroke-miterlimit="10" fill="#FFFFFF" /><text fill="#323232"
			font-family="Verdana,Verdana_MSFontService,sans-serif" font-weight="700" font-size="11"
			transform="translate(672.136 349)">Resource<tspan font-size="11" x="9.75336" y="13">in </tspan>use<tspan
				font-style="italic" font-size="8" x="-4.57996" y="31">Amount</tspan>
			<tspan font-style="italic" font-size="8" x="30.5867" y="31">: </tspan>
		</text>
		<rect x="464.5" y="333.5" width="88" height="55" stroke="#007A9E" stroke-width="2.66667" stroke-linejoin="round"
			stroke-miterlimit="10" fill="#FFFFFF" /><text fill="#323232"
			font-family="Verdana,Verdana_MSFontService,sans-serif" font-weight="700" font-size="11"
			transform="translate(484.601 359)">Market<tspan font-size="11" x="41.8333" y="0">-</tspan>
			<tspan font-size="11" x="7.58667" y="12">place</tspan>
		</text>
		<path
			d="M0.00039021-0.666667 83.1627-0.61799 83.1619 0.715343-0.00039021 0.666667ZM75.5013-5.19833 84.4854 0.0494505 75.4952 5.28671C75.177 5.47204 74.7689 5.36438 74.5835 5.04624 74.3982 4.72809 74.5059 4.31994 74.824 4.13461L82.8267-0.527373 82.8261 0.624332 74.8288-4.04702C74.5109-4.23272 74.4037-4.641 74.5894-4.95892 74.7751-5.27685 75.1834-5.38403 75.5013-5.19833Z"
			fill="#313131" transform="matrix(1 0 0 -1 177.5 361.549)" /><text fill="#323232"
			font-family="Verdana,Verdana_MSFontService,sans-serif" font-style="italic" font-weight="700" font-size="8"
			transform="translate(180.11 340)">Resource<tspan font-size="8" x="44.1667" y="0">cost</tspan>:<tspan
				font-size="8" x="0" y="14">Purchases</tspan>
			<tspan font-size="8" x="45.8333" y="14">:</tspan>
		</text>
		<path
			d="M758.502 360.833 759.836 360.838 759.831 362.171 758.498 362.167ZM761.169 360.842 762.502 360.847 762.498 362.18 761.164 362.176ZM763.836 360.851 765.169 360.856 765.164 362.189 763.831 362.184ZM766.502 360.86 767.836 360.864 767.831 362.198 766.498 362.193ZM769.169 360.869 770.502 360.873 770.498 362.207 769.164 362.202ZM771.836 360.878 773.169 360.882 773.164 362.216 771.831 362.211ZM774.502 360.887 775.836 360.891 775.831 362.224 774.498 362.22ZM777.169 360.896 778.502 360.9 778.498 362.233 777.164 362.229ZM779.836 360.904 781.169 360.909 781.164 362.242 779.831 362.238ZM782.502 360.913 783.835 360.918 783.831 362.251 782.498 362.247ZM785.169 360.922 786.502 360.927 786.498 362.26 785.164 362.256ZM787.835 360.931 789.169 360.936 789.164 362.269 787.831 362.264ZM790.502 360.94 791.835 360.944 791.831 362.278 790.498 362.273ZM793.169 360.949 794.502 360.953 794.498 362.287 793.164 362.282ZM795.835 360.958 797.169 360.962 797.164 362.296 795.831 362.291ZM798.502 360.967 799.835 360.971 799.831 362.304 798.498 362.3ZM801.169 360.976 802.502 360.98 802.498 362.313 801.164 362.309ZM803.835 360.984 805.169 360.989 805.164 362.322 803.831 362.318ZM806.502 360.993 807.835 360.998 807.831 362.331 806.498 362.327ZM809.169 361.002 810.502 361.007 810.498 362.34 809.164 362.335ZM811.835 361.011 813.169 361.015 813.164 362.349 811.831 362.344ZM814.502 361.02 815.835 361.024 815.831 362.358 814.498 362.353ZM817.169 361.029 818.502 361.033 818.498 362.367 817.164 362.362ZM819.835 361.038 821.169 361.042 821.164 362.375 819.831 362.371ZM822.502 361.047 823.835 361.051 823.831 362.384 822.497 362.38ZM825.169 361.055 826.502 361.06 826.497 362.393 825.164 362.389ZM827.835 361.064 829.169 361.069 829.164 362.402 827.831 362.398ZM830.502 361.073 831.835 361.078 831.831 362.411 830.497 362.407ZM833.169 361.082 834.502 361.087 834.497 362.42 833.164 362.415ZM835.835 361.091 837.169 361.095 837.164 362.429 835.831 362.424ZM838.502 361.1 838.659 361.1 838.655 362.434 838.497 362.433ZM831.011 356.499 839.98 361.771 830.976 366.984C830.657 367.168 830.249 367.06 830.065 366.741 829.88 366.422 829.989 366.015 830.308 365.83L838.323 361.19 838.319 362.342 830.335 357.648C830.018 357.462 829.911 357.053 830.098 356.736 830.285 356.419 830.693 356.312 831.011 356.499Z"
			fill="#313131" />
		<path d="M695.5 404.5 695.5 436.997" stroke="#313131" stroke-width="1.33333" stroke-linejoin="round"
			stroke-miterlimit="10" fill="none" fill-rule="evenodd" />
		<path d="M695.411 436.258 319.5 435.5" stroke="#313131" stroke-width="1.33333" stroke-linejoin="round"
			stroke-miterlimit="10" fill="none" fill-rule="evenodd" />
		<path
			d="M0.666667-1.85162e-06 0.666768 36.4801-0.666565 36.4801-0.666667 1.85162e-06ZM5.2426 28.816 0.000105018 37.8032-5.24244 28.816C-5.42796 28.498-5.32054 28.0898-5.0025 27.9043-4.68447 27.7187-4.27626 27.8262-4.09074 28.1442L0.575953 36.1442-0.575752 36.1442 4.09089 28.1442C4.27641 27.8261 4.68462 27.7187 5.00266 27.9042 5.32069 28.0898 5.42812 28.498 5.2426 28.816Z"
			fill="#313131" transform="matrix(1 0 0 -1 319.5 435.3)" />
		<path
			d="M0.00039021-0.666667 83.1627-0.61799 83.1619 0.715343-0.00039021 0.666667ZM75.5013-5.19833 84.4854 0.0494505 75.4952 5.28671C75.177 5.47204 74.7689 5.36438 74.5835 5.04624 74.3982 4.72809 74.5059 4.31994 74.824 4.13461L82.8267-0.527373 82.8261 0.624332 74.8288-4.04702C74.5109-4.23272 74.4037-4.641 74.5894-4.95892 74.7751-5.27685 75.1834-5.38403 75.5013-5.19833Z"
			fill="#313131" transform="matrix(1 0 0 -1 366.5 334.549)" />
		<path
			d="M0.00039021-0.666667 83.1627-0.61799 83.1619 0.715343-0.00039021 0.666667ZM75.5013-5.19833 84.4854 0.0494505 75.4952 5.28671C75.177 5.47204 74.7689 5.36438 74.5835 5.04624 74.3982 4.72809 74.5059 4.31994 74.824 4.13461L82.8267-0.527373 82.8261 0.624332 74.8288-4.04702C74.5109-4.23272 74.4037-4.641 74.5894-4.95892 74.7751-5.27685 75.1834-5.38403 75.5013-5.19833Z"
			fill="#313131" transform="matrix(1 0 0 -1 367.5 387.549)" />
		<path
			d="M0.000429243-0.666667 75.4802-0.618068 75.4793 0.715265-0.000429243 0.666667ZM67.8193-5.19885 76.8031 0.0494509 67.8125 5.28618C67.4944 5.4715 67.0862 5.36381 66.9009 5.04566 66.7156 4.7275 66.8233 4.31936 67.1414 4.13404L75.1445-0.52747 75.1437 0.624235 67.1467-4.04758C66.8288-4.23331 66.7216-4.64159 66.9074-4.9595 67.0931-5.27742 67.5014-5.38458 67.8193-5.19885Z"
			fill="#313131" transform="matrix(1 0 0 -1 566.5 360.549)" /><text fill="#323232"
			font-family="Verdana,Verdana_MSFontService,sans-serif" font-style="italic" font-weight="700" font-size="8"
			transform="translate(371.931 367)">Price <tspan font-size="8" x="25.1667" y="0">used</tspan>
			<tspan font-size="8" x="46.5" y="0">:</tspan>
			<tspan font-size="8" x="0" y="14">Sales </tspan>
			<tspan font-size="8" x="26.3333" y="14">used</tspan>
			<tspan font-size="8" x="47.6667" y="14">:</tspan>
			<tspan font-size="8" x="0" y="-53">Price </tspan>
			<tspan font-size="8" x="25.1667" y="-53">new</tspan>
			<tspan font-size="8" x="44" y="-53">:</tspan>
			<tspan font-size="8" x="0" y="-39">Sales </tspan>
			<tspan font-size="8" x="26.3333" y="-39">new</tspan>
			<tspan font-size="8" x="45.1667" y="-39">:</tspan>
			<tspan font-size="8" x="-36.4247" y="47">Rebuy</tspan>
			<tspan font-size="8" x="-5.59131" y="47">price</tspan>
			<tspan font-size="8" x="16.742" y="47">:</tspan>
			<tspan font-size="8" x="-36.4247" y="61">Repurchases</tspan>
			<tspan font-size="8" x="20.9087" y="61">:</tspan>
			<tspan fill="#000000" font-weight="400" font-size="8" x="418.467" y="54">All </tspan>
			<tspan fill="#000000" font-weight="400" font-size="8" x="431.134" y="54">quantities</tspan>
			<tspan fill="#000000" font-weight="400" font-size="8" x="473.467" y="54">are</tspan>
			<tspan fill="#000000" font-weight="400" font-size="8" x="489.3" y="54">averaged</tspan>
			<tspan fill="#000000" font-weight="400" font-size="8" x="529.467" y="54">over</tspan>
			<tspan fill="#000000" font-weight="400" font-size="8" x="549.967" y="54">all </tspan>
			<tspan fill="#000000" font-weight="400" font-size="8" x="418.467" y="64">time </tspan>
			<tspan fill="#000000" font-weight="400" font-size="8" x="439.3" y="64">periods</tspan>
			<tspan fill="#000000" font-weight="400" font-size="8" x="471.467" y="64">of</tspan>
			<tspan fill="#000000" font-weight="400" font-size="8" x="481.967" y="64">the</tspan>
			<tspan fill="#000000" font-weight="400" font-size="8" x="497.8" y="64">current</tspan>
			<tspan fill="#000000" font-weight="400" font-size="8" x="529.467" y="64">episode</tspan>
			<tspan fill="#000000" font-weight="400" font-size="8" x="560.3" y="64">.</tspan>
		</text>
		<path d="M695.5 236.5 695.5 275.609" stroke="#313131" stroke-width="1.33333" stroke-linejoin="round"
			stroke-miterlimit="10" fill="none" fill-rule="evenodd" />
	</g>
</svg>
