<?xml version="1.0" encoding="utf-8"?>
<!-- Generator: Adobe Illustrator 25.4.1, SVG Export Plug-In . SVG Version: 6.00 Build 0)  -->
<svg version="1.1" id="logos" xmlns="http://www.w3.org/2000/svg" xmlns:xlink="http://www.w3.org/1999/xlink" x="0px" y="0px"
	 viewBox="0 0 833.5 133.7" style="enable-background:new 0 0 833.5 133.7;" xml:space="preserve">
<style type="text/css">
	.st0{fill:url(#SVGID_1_);}
	.st1{fill:url(#SVGID_00000036972044988307410540000004168899546990480780_);}
	.st2{fill:#111D29;}
</style>
<g>
	
		<linearGradient id="SVGID_1_" gradientUnits="userSpaceOnUse" x1="-133.7399" y1="69.61" x2="133.74" y2="69.61" gradientTransform="matrix(1 0 0 -1 0 136.48)">
		<stop  offset="0.2" style="stop-color:#4DB1FF"/>
		<stop  offset="0.4" style="stop-color:#4FB5FC"/>
		<stop  offset="0.61" style="stop-color:#53C2F3"/>
		<stop  offset="0.83" style="stop-color:#5BD6E3"/>
		<stop  offset="1" style="stop-color:#64EDD2"/>
	</linearGradient>
	<path class="st0" d="M87.8,70h24.5c11.7,0.1,21.3-9.3,21.4-21c0-0.1,0-0.2,0-0.2V0l-28.1,0.1C84.3,0.2,66.9,17.5,66.7,38.9
		l-0.1,10.2C66.6,60.3,62.2,71,54.3,78.9L0,133.7h48.8c11.4,0,22.2-4.5,30.3-12.5l30-30L87.8,70z"/>
	
		<linearGradient id="SVGID_00000097483936774161781630000015517495049214239376_" gradientUnits="userSpaceOnUse" x1="217.39" y1="253.39" x2="-50.0999" y2="-14.1" gradientTransform="matrix(1 0 0 -1 0 136.48)">
		<stop  offset="0.2" style="stop-color:#1B90FF"/>
		<stop  offset="1" style="stop-color:#5D36FF"/>
	</linearGradient>
	<path style="fill:url(#SVGID_00000097483936774161781630000015517495049214239376_);" d="M1.4,132.3l52.9-53.4
		c7.9-7.9,12.3-18.7,12.4-29.8l0.1-10.2c0,0,0,0,0-0.1L67,0.2L39.6,27.6c-4.1,4.1-6.5,9.8-6.5,15.6V63L18.7,48.5l-6.1,6.1
		C4.5,62.7,0,73.6,0,85v48.8L1.4,132.3z"/>
	<path class="st2" d="M172.1,110.2v-67h44.2v12.3h-29.5v16.3h21v11.7h-21v26.7H172.1z"/>
	<path class="st2" d="M214.5,86.1c-0.1-4.1,0.7-8.2,2.4-11.9c1.4-3,3.5-5.6,6-7.7c2.3-1.9,5-3.4,7.9-4.2c2.6-0.8,5.3-1.3,8-1.3
		c2.6,0,5.2,0.4,7.7,1.1c2.7,0.8,5.1,2.2,7.2,4.1c2.3,2.3,4.2,5.1,5.3,8.2c1.4,3.5,2.1,7.9,2.1,13.4V90h-32c0.4,3.9,1.6,6.6,3.6,8.3
		c2.2,1.7,4.9,2.6,7.6,2.5c2.8,0,5.5-0.6,8.1-1.7c2.3-1,4.4-2.3,6.2-3.9l5.6,8.6c-5.7,5-12.7,7.4-21,7.4c-3.1,0-6.2-0.4-9.2-1.3
		c-2.9-0.8-5.6-2.3-7.9-4.3c-2.4-2.1-4.3-4.8-5.5-7.7C215.1,94.1,214.4,90.1,214.5,86.1z M229.1,81.4h18.7c-0.7-6.7-3.8-10-9.2-10
		c-2.2,0-4.4,0.8-6,2.3C230.9,75.3,229.7,77.9,229.1,81.4z"/>
	<path class="st2" d="M265.6,97.9c0-5.5,2.4-9.9,7.3-13c4.9-3.1,12.6-5.1,23.2-6v-1.2c0.1-1.6-0.4-3.1-1.5-4.2c-1-1.1-2.7-1.6-5-1.6
		c-2.9,0-5.8,0.5-8.5,1.7c-2.6,1.1-5.1,2.6-7.3,4.3l-6.2-8.4c1.3-1.1,2.7-2.2,4.1-3.1c1.6-1.1,3.4-2,5.2-2.8
		c2.1-0.9,4.3-1.5,6.6-1.9c2.7-0.5,5.4-0.8,8.2-0.7c6.6,0,11.4,1.6,14.3,4.8c2.9,3.2,4.4,7.9,4.4,14.1v18.6c0,2.4,0.1,4.8,0.3,7.1
		c0.1,1.6,0.5,3.1,1.1,4.6h-14.5c-0.3-1-0.5-2.1-0.8-3.3c-0.2-1.3-0.3-2.5-0.3-3.8c-2,2.4-4.5,4.4-7.4,5.8c-2.9,1.4-6.2,2.1-9.4,2
		c-1.8,0-3.6-0.3-5.3-0.9c-1.6-0.5-3.1-1.4-4.4-2.5c-1.3-1.1-2.3-2.5-3-4.1C266,101.7,265.6,99.8,265.6,97.9z M279.9,95.3
		c-0.1,1.3,0.5,2.6,1.5,3.5c1.1,0.8,2.5,1.2,3.9,1.1c2.2,0.1,4.4-0.3,6.5-1.2c1.7-0.7,3.2-1.7,4.5-3v-8.9c-5.8,0.6-9.9,1.6-12.5,3
		S279.9,93.1,279.9,95.3L279.9,95.3z"/>
	<path class="st2" d="M317,72.5V61.9h8V45.4h14.6v16.5h12.3v10.6h-12.3v20.9c0,2.6,0.5,4.4,1.4,5.3c0.9,1,2.7,1.4,5.3,1.4
		c0.9,0,1.7,0,2.7-0.1c0.7,0,1.4-0.2,2.1-0.4v10.5c-0.3,0.1-0.8,0.1-1.5,0.2s-1.6,0.2-2.5,0.2l-2.9,0.2c-1,0.1-1.9,0.1-2.7,0.1
		c-2.9,0.1-5.8-0.2-8.6-0.9c-1.9-0.5-3.6-1.4-5-2.8c-1.2-1.2-1.9-2.8-2.3-4.4c-0.4-2-0.6-4-0.6-6.1V72.5H317z"/>
	<path class="st2" d="M359.7,110.2v-67h14.6v26.3c0.8-1,1.7-2,2.6-2.9c1.1-1.1,2.3-2,3.6-2.7c1.5-0.9,3-1.6,4.7-2.1
		c1.9-0.6,3.8-0.8,5.7-0.8c1.9,0,3.8,0.3,5.7,0.8c1.7,0.5,3.2,1.4,4.5,2.5c1.3,1.2,2.3,2.7,2.9,4.3c0.7,2,1.1,4.2,1,6.4v35.2h-14.5
		V79.5c0.1-1.8-0.3-3.5-1.3-5c-0.9-1.1-2.3-1.7-4.3-1.7c-1.9,0-3.8,0.5-5.5,1.4c-1.8,1-3.5,2.1-5,3.4v32.6H359.7z"/>
	<path class="st2" d="M413,86.1c-0.1-4.1,0.7-8.2,2.4-11.9c1.4-3,3.5-5.6,6-7.7c2.3-1.9,5-3.4,7.9-4.2c2.6-0.8,5.3-1.3,8-1.3
		c2.6,0,5.2,0.4,7.7,1.1c2.7,0.8,5.1,2.2,7.2,4.1c2.3,2.3,4.2,5.1,5.3,8.2c1.4,3.5,2.1,7.9,2.1,13.4V90h-32c0.4,3.9,1.6,6.6,3.6,8.3
		c2.2,1.7,4.9,2.6,7.6,2.5c2.8,0,5.5-0.6,8.1-1.7c2.3-1,4.4-2.3,6.2-3.9l5.6,8.6c-5.7,5-12.7,7.4-21,7.4c-3.1,0-6.2-0.4-9.2-1.3
		c-2.9-0.8-5.6-2.3-7.9-4.3c-2.4-2.1-4.3-4.8-5.5-7.7C413.6,94.1,412.9,90.1,413,86.1z M427.6,81.4h18.7c-0.7-6.7-3.8-10-9.2-10
		c-2.2,0-4.4,0.8-6,2.3C429.3,75.3,428.2,77.9,427.6,81.4z"/>
	<path class="st2" d="M467.8,110.2V61.9h14.6v7.8h0.1c0.7-1.1,1.5-2.1,2.4-3.1c1-1.1,2.1-2,3.4-2.8c1.4-0.9,2.9-1.6,4.5-2.1
		c1.9-0.6,4-0.9,6-0.8h0.5l-0.2,12.6c-0.6-0.1-1.2-0.2-1.8-0.2c-0.9-0.1-1.5-0.1-2-0.1c-2.7-0.1-5.3,0.6-7.5,2
		c-2,1.2-3.8,2.8-5.3,4.6v30.3H467.8z"/>
	<path class="st2" d="M530.5,110.2v-67H545v26.1c1.6-2.3,3.6-4.2,5.9-5.8c2.6-1.8,5.8-2.6,8.9-2.5c2.6,0,5.1,0.5,7.5,1.6
		c2.3,1.1,4.3,2.7,5.9,4.7c1.8,2.3,3.1,5,3.8,7.8c1.8,7.2,1.8,14.7,0,21.8c-0.8,2.8-2.1,5.5-3.9,7.8c-1.6,2-3.6,3.6-5.9,4.7
		c-2.4,1-5,1.6-7.6,1.5c-2.9,0.1-5.8-0.5-8.4-1.7c-2.4-1.1-4.5-2.7-6.2-4.8v5.7H530.5z M545,95.5c1.3,1.3,2.9,2.5,4.5,3.4
		c1.6,0.8,3.4,1.1,5.1,1.1c2.8,0.1,5.4-1.2,6.9-3.6c1.5-2.4,2.3-5.9,2.3-10.3c0-4-0.7-7.3-2.2-9.6c-1.5-2.4-3.8-3.6-7.1-3.6
		c-1.9,0-3.7,0.5-5.3,1.5c-1.5,0.9-3,2-4.2,3.3V95.5z"/>
	<path class="st2" d="M578.9,126.9l3-11.2c0.7,0.2,1.8,0.4,3.4,0.8c1.9,0.4,3.8,0.5,5.7,0.5c1.3,0.1,2.7-0.3,3.8-0.9
		c1.1-0.8,1.9-1.9,2.3-3.2l0.9-2.4l-18.5-48.5h15l10.6,31.3h0.2l10.7-31.3h14.1L610,115.2c-0.8,1.9-1.7,3.8-2.7,5.6
		c-1,1.6-2.1,3-3.5,4.2c-1.4,1.2-3,2.1-4.8,2.7c-2.1,0.6-4.2,1-6.3,0.9c-2.9,0.1-5.8-0.1-8.6-0.6
		C581.9,127.7,580.2,127.3,578.9,126.9z"/>
	<path class="st2" d="M655.5,95.1l11.1-6.6c1.7,3.5,4.3,6.4,7.5,8.4c3.1,2,6.8,3,10.5,2.9c2.9,0.1,5.8-0.5,8.4-1.9
		c2.1-1.1,3.3-3.4,3.2-5.8c0.1-2.4-1.3-4.7-3.5-5.8c-3.2-1.7-6.5-3-10-3.8l-8.8-2.6c-2.8-0.8-5.4-2-7.8-3.5
		c-2.3-1.4-4.2-3.3-5.6-5.6c-1.5-2.6-2.3-5.6-2.1-8.6c0-2.9,0.5-5.7,1.8-8.3c1.2-2.4,2.8-4.6,4.9-6.2c2.2-1.8,4.8-3.1,7.5-3.9
		c3.2-0.9,6.5-1.4,9.8-1.3c3.1,0,6.2,0.3,9.2,1.1c2.6,0.7,5,1.7,7.3,3c2.1,1.2,4,2.6,5.7,4.3c1.6,1.6,3,3.3,4.2,5.1l-10.2,7.8
		c-1.7-2.9-4.2-5.2-7.1-6.9c-2.8-1.7-6-2.6-9.3-2.5c-3.1,0-5.5,0.6-7.1,1.9c-1.6,1.1-2.5,3-2.5,4.9c-0.1,2.5,1.3,4.9,3.5,6
		c3.2,1.6,6.6,2.9,10.1,3.8l8.7,2.7c2.8,0.8,5.4,2,7.8,3.6c2.2,1.5,4.1,3.4,5.6,5.7c1.5,2.6,2.2,5.5,2.1,8.5c0,2.6-0.5,5.3-1.6,7.7
		c-1.1,2.5-2.7,4.7-4.8,6.4c-2.4,2-5.2,3.5-8.3,4.4c-3.9,1.2-7.9,1.8-12,1.7c-3.3,0-6.6-0.4-9.8-1.2c-2.8-0.8-5.4-1.9-7.9-3.4
		c-2.3-1.4-4.3-3.1-6.1-5.2C658.3,99.7,656.8,97.5,655.5,95.1z"/>
	<path class="st2" d="M713.6,110.2l23.6-66.9h14l23.5,66.9h-14.9l-4.9-15h-22.7l-5.1,15H713.6z M735.8,84.7h15.6l-7.6-22.7h-0.2
		L735.8,84.7z"/>
	<path class="st2" d="M782.2,110.2V43.6h24.2c3.4,0,6.8,0.3,10.2,0.8c3.1,0.5,6,1.6,8.7,3.2c2.5,1.6,4.6,3.9,6,6.5
		c1.6,3.3,2.4,7,2.2,10.7c0,4.5-0.8,8.2-2.4,11.1c-1.5,2.7-3.7,5-6.3,6.7c-2.7,1.6-5.7,2.8-8.8,3.3c-3.3,0.6-6.6,0.9-9.9,0.9h-9.5
		v23.5H782.2z M796.7,75.2h10c4.6,0,7.8-0.8,9.7-2.5c1.9-1.7,2.8-4.2,2.8-7.4c0.2-2.7-0.9-5.3-2.8-7.2c-1.9-1.7-5.1-2.6-9.7-2.6h-10
		V75.2z"/>
</g>
</svg>
